<svg width="160" height="64" xmlns="http://www.w3.org/2000/svg" stroke="null" fill="none">
 <defs stroke="null">
  <linearGradient stroke="null" y2="0.59444" x2="-0.30046" y1="-0.02391" x1="1.1818" id="e">
   <stop stroke="null" stop-color="#FBB743"/>
   <stop stroke="null" stop-color="#EA6B00" offset="1"/>
  </linearGradient>
 </defs>
 <g stroke="null">
  <title stroke="null">Layer 1</title>
  <path stroke="null" id="svg_7" fill="#B7BBBD" d="m89.9942,5.10377l14.33,0l2.039,2.083l0,45.834l-2.038,2.083l-19.529,0l0.989,-1.563l17.908,0l1.141,-1.166l0,-44.542l-1.141,-1.166l-12.353,0l-1.458,7.697l-1.56,0l1.397,-7.77l0.285,-1.49l-0.01,0zm-34.593,50l-2.038,-2.083l0,-45.834l2.038,-2.083l20.283,0l-1.03,1.563l-18.619,0l-1.144,1.166l0,44.542l1.141,1.166l14.761,0l-0.246,1.563l-15.146,0zm3.058,-5.208l8.664,0l-0.306,1.562l-9.377,0l-0.51,-0.52l0,-9.376l1.53,3.125l0,5.209l-0.001,0zm34.654,0l1.529,1.562l-7.644,0l1.019,-1.562l5.096,0z"/>
  <path stroke="null" id="svg_8" fill="url(#e)" d="m76.09534,37.64265l-14.114,0l-1.714,-3.21l23.747,-34.978l3.737,1.543l-4.687,24.3l14.02,0l1.735,3.179l-22.714,34.978l-3.779,-1.44l3.769,-24.372zm-17.727,-23.662c-0.411,0 -0.805,-0.162 -1.095,-0.452a1.54,1.54 0 0 1 1.095,-2.634c0.41,0 0.804,0.162 1.095,0.452a1.54,1.54 0 0 1 -1.095,2.634zm4.13,0c-0.411,0 -0.805,-0.162 -1.096,-0.452a1.54,1.54 0 0 1 1.095,-2.634c0.411,0 0.805,0.162 1.095,0.452a1.54,1.54 0 0 1 0,2.182c-0.29,0.29 -0.684,0.452 -1.095,0.452l0.001,0zm4.13,0c-0.411,0 -0.805,-0.162 -1.096,-0.452a1.54,1.54 0 0 1 1.095,-2.634c0.411,0 0.805,0.162 1.095,0.452a1.54,1.54 0 0 1 0,2.182c-0.29,0.29 -0.684,0.452 -1.095,0.452l0.001,0z"/>
 </g>
</svg>